<svg width="140" height="24" viewBox="0 0 140 24" fill="none" xmlns="http://www.w3.org/2000/svg">
<path d="M0 6.32545H5.02382L8.89761 14.4665L12.7716 6.32545H17.8257L8.89761 23.6368L0 6.32545Z" fill="white"/>
<path d="M20.0966 7.02153H24.6362V23.6368H20.0966V7.02153ZM22.3664 5.23595C20.9741 5.23595 19.8242 4.14644 19.8242 2.7844C19.8242 1.45295 20.9741 0.363289 22.3664 0.363289C23.7281 0.363289 24.848 1.45295 24.848 2.7844C24.848 4.14644 23.7281 5.23595 22.3664 5.23595Z" fill="white"/>
<path d="M35.8665 10.2297C32.9912 10.2297 31.2966 12.2271 31.2966 14.9509C31.2966 17.5838 33.0822 19.6418 35.8665 19.6418C38.681 19.6418 40.4362 17.8562 40.4362 14.9509C40.4362 12.1968 38.681 10.2297 35.8665 10.2297ZM40.2548 21.6089C39.5587 22.5471 37.5613 23.6368 35.2005 23.6368C29.9346 23.6368 26.8477 19.7326 26.8477 14.9509C26.8477 10.169 29.9346 6.26493 35.2005 6.26493C37.6218 6.26493 39.4072 7.23337 40.2548 8.3533V0.393709H44.7338V23.2736H40.2548V21.6089Z" fill="white"/>
<path d="M51.3648 13.4377H59.6875C59.5059 11.9245 58.023 10.2599 55.7532 10.2599C53.1505 10.2599 51.5465 11.7429 51.3648 13.4377ZM46.7344 14.9509C46.7344 8.11119 52.6663 6.29535 55.7835 6.29535C60.0507 6.29535 64.3179 9.20069 64.4692 14.5574C64.4692 15.8287 64.3784 16.6458 64.3784 16.6458H51.2437C51.7885 19.3696 54.8755 19.6722 55.7835 19.6722C58.2954 19.6722 59.5362 18.3103 60.0507 17.7351L63.5613 19.763C62.8957 20.6709 60.656 23.6368 55.7835 23.6368C52.5451 23.6368 46.7344 21.7907 46.7344 14.9509Z" fill="white"/>
<path d="M70.9177 14.951C70.9177 17.705 72.885 19.7025 75.4876 19.7025C78.0602 19.7025 80.0576 17.6445 80.0576 14.951C80.0576 12.2876 78.0602 10.2601 75.4876 10.2601C72.9454 10.2601 70.9177 12.318 70.9177 14.951ZM66.4688 14.951C66.4688 10.1996 70.5243 6.29535 75.4876 6.29535C80.451 6.29535 84.5669 10.1996 84.5669 14.951C84.5669 19.763 80.451 23.6368 75.4876 23.6368C70.5243 23.6368 66.4688 19.763 66.4688 14.951Z" fill="white"/>
<path d="M86.5703 21.0341L88.9309 17.8865C90.2323 18.7643 92.3206 19.6722 94.3181 19.6722C95.7102 19.6722 96.7089 19.0367 96.7089 18.1893C96.7089 17.0693 94.3786 16.9484 93.5009 16.797C91.2311 16.4037 86.9034 15.7377 86.9034 11.5613C86.9034 6.68862 92.1692 6.29535 93.7733 6.29535C96.4063 6.29535 98.5249 7.05195 100.704 8.6862L98.3432 11.7731C97.1023 11.0468 95.4681 10.2297 93.6218 10.2297C92.7443 10.2297 91.443 10.6534 91.443 11.4705C91.443 12.5903 93.8641 12.8626 94.5904 12.9536C97.405 13.4378 101.218 13.922 101.218 18.2195C101.218 21.6696 98.7366 23.6368 94.3786 23.6368C90.8074 23.6368 88.3862 22.4867 86.5703 21.0341Z" fill="white"/>
<path d="M112.238 10.2297C109.362 10.2297 107.668 12.2271 107.668 14.9509C107.668 17.5838 109.453 19.6418 112.238 19.6418C115.052 19.6418 116.807 17.8562 116.807 14.9509C116.807 12.1968 115.052 10.2297 112.238 10.2297ZM116.626 21.6089C115.93 22.5471 113.932 23.6368 111.572 23.6368C106.306 23.6368 103.219 19.7326 103.219 14.9509C103.219 10.169 106.306 6.26493 111.572 6.26493C113.993 6.26493 115.778 7.23337 116.626 8.3533V0.393709H121.105V23.2736H116.626V21.6089Z" fill="white"/>
<path d="M127.641 0.756878V14.0732L133.301 7.08205H138.839L132.151 14.8298L139.112 23.6368H133.634L129.276 18.1891L127.641 20.0656V23.6368H123.102V0.756878H127.641Z" fill="white"/>
</svg>
